<svg xmlns="http://www.w3.org/2000/svg" version="1.1" xmlns:xlink="http://www.w3.org/1999/xlink" xmlns:svgjs="http://svgjs.com/svgjs" width="512" height="512" x="0" y="0" viewBox="0 0 64 64" style="enable-background:new 0 0 512 512" xml:space="preserve" class=""><g><path fill="#ff6200" d="M54 45.683A12 12 0 0 1 62 57v5H2v-5a12 12 0 0 1 8-11.317" data-original="#2d4d83" class=""></path><path fill="#fff1d9" d="M24.15 37A27.244 27.244 0 0 1 20 22.546V19l6.687-4.458A9.176 9.176 0 0 1 31.78 13a9.178 9.178 0 0 0 5.735-2.012L40 9l2.321 3.481A10 10 0 0 1 44 18.028v4.518A27.236 27.236 0 0 1 39.849 37" data-original="#fadfb2" class=""></path><path fill="#ffebc5" d="M21.048 30.028A27.221 27.221 0 0 1 20 22.546V22h-1.3a2.7 2.7 0 0 0-2.7 2.7 2.7 2.7 0 0 0 1.014 2.109l4.034 3.217zM43 30l3.986-3.189A2.7 2.7 0 0 0 48 24.7a2.7 2.7 0 0 0-2.7-2.7H44v.546a27.219 27.219 0 0 1-1.037 7.444z" data-original="#f5cf88" class=""></path><path fill="#bd7a37" d="m44 22 2.711-7.455a9.348 9.348 0 0 0-.243-6.992A9.35 9.35 0 0 0 37.924 2h-8.49A32.9 32.9 0 0 0 12 7l2.411.8a3.567 3.567 0 0 1 2.189 4.713 3.571 3.571 0 0 0 .121 2.92L20 22v-3l6.687-4.458A9.176 9.176 0 0 1 31.78 13a9.178 9.178 0 0 0 5.735-2.012L40 9l2.321 3.481A10 10 0 0 1 44 18.028z" data-original="#976947" class=""></path><path fill="#2b2b2b" d="M24 22h6v4a2 2 0 0 1-2 2h-2a2 2 0 0 1-2-2v-4zM34 22h6v4a2 2 0 0 1-2 2h-2a2 2 0 0 1-2-2v-4z" data-original="#f2f0eb" class=""></path><path fill="#2b2b2b" d="M40 22v2h3.949c.026-.483.051-.966.051-1.453V22zM20 22.546c0 .487.025.97.051 1.453H24V22h-4z" data-original="#c1c8d1" class=""></path><path fill="#2f2f2d" d="M30 23h4v2h-4z" data-original="#a8b0bc" class=""></path><path fill="#cfcfcf" d="M10 62V41a4 4 0 0 1 4-4h36a4 4 0 0 1 4 4v21" data-original="#d5cec2" class=""></path><circle cx="32" cy="54" r="3" fill="#9f9887" data-original="#e7e4dd" class=""></circle><g fill="#c66b60"><path d="m25.292 48.707-4-4a1 1 0 0 1 0-1.415l4-4 1.415 1.415L23.414 44l3.293 3.292zM38.707 48.707l-1.415-1.415L40.585 44l-3.293-3.293 1.415-1.415 4 4a1 1 0 0 1 0 1.415zM28.199 47.407l6-8 1.6 1.2-6 8z" fill="#cfcfcf" data-original="#c66b60" class=""></path></g></g></svg>